<svg width="19" height="20" viewBox="0 0 19 20" fill="none" xmlns="http://www.w3.org/2000/svg">
<path d="M3.7605 9.99996C3.7605 13.1698 6.3302 15.7395 9.50008 15.7395C12.67 15.7395 15.2397 13.1698 15.2397 9.99996C15.2397 6.83008 12.67 4.26038 9.50008 4.26038C6.3302 4.26038 3.7605 6.83008 3.7605 9.99996Z" fill="#E6E8EB"/>
<path d="M9.5 12.9762V12.9688" stroke="#50565B" stroke-linecap="round" stroke-linejoin="round"/>
<path d="M7.71875 8.8125C7.71875 8.4602 7.82322 8.11582 8.01894 7.82289C8.21467 7.52997 8.49286 7.30166 8.81835 7.16684C9.14383 7.03202 9.50198 6.99675 9.8475 7.06548C10.193 7.13421 10.5104 7.30385 10.7595 7.55297C11.0086 7.80208 11.1783 8.11947 11.247 8.465C11.3158 8.81052 11.2805 9.16867 11.1457 9.49416C11.0108 9.81964 10.7825 10.0978 10.4896 10.2936C10.1967 10.4893 9.8523 10.5937 9.5 10.5937L9.5 10.9896" stroke="#50565B" stroke-linecap="round" stroke-linejoin="round"/>
</svg>
