<svg width="15" height="16" viewBox="0 0 15 16" fill="none" xmlns="http://www.w3.org/2000/svg">
<path d="M7.5 10.35V10.3438" stroke="#BDC1C7" stroke-linecap="round" stroke-linejoin="round"/>
<path d="M6.09375 7.0625C6.09375 6.78437 6.17623 6.51249 6.33075 6.28123C6.48527 6.04997 6.70489 5.86973 6.96185 5.76329C7.21881 5.65686 7.50156 5.62901 7.77435 5.68327C8.04713 5.73753 8.2977 5.87146 8.49437 6.06813C8.69104 6.2648 8.82497 6.51537 8.87923 6.78815C8.93349 7.06094 8.90564 7.34369 8.7992 7.60065C8.69277 7.85761 8.51253 8.07723 8.28127 8.23175C8.05001 8.38627 7.77813 8.46875 7.5 8.46875L7.5 8.78125" stroke="#BDC1C7" stroke-linecap="round" stroke-linejoin="round"/>
<path d="M2.96875 8C2.96875 10.5025 4.99746 12.5312 7.5 12.5312C10.0025 12.5312 12.0312 10.5025 12.0312 8C12.0312 5.49746 10.0025 3.46875 7.5 3.46875C4.99746 3.46875 2.96875 5.49746 2.96875 8Z" stroke="#BDC1C7"/>
</svg>
