<svg width="26" height="27" viewBox="0 0 26 27" fill="none" xmlns="http://www.w3.org/2000/svg">
<path d="M16.3978 9.33115C15.4527 8.41868 14.2505 7.95408 12.9115 7.95408C10.5362 7.95408 8.52569 9.57391 7.80853 11.7504C7.62613 12.3029 7.52249 12.8931 7.52249 13.5C7.52249 14.1069 7.62612 14.6971 7.80851 15.2496C8.52567 17.4261 10.5362 19.0459 12.9115 19.0459C14.1386 19.0459 15.1832 18.7194 15.9999 18.1669C16.9657 17.514 17.6083 16.5388 17.8197 15.3877H12.9115V11.8258H21.5008C21.6086 12.4285 21.6666 13.0564 21.6666 13.7093C21.6666 16.5137 20.6717 18.8744 18.9472 20.4774C17.4383 21.8838 15.3739 22.7083 12.9115 22.7083C9.34649 22.7083 6.26231 20.6448 4.76167 17.6354C4.144 16.3923 3.79163 14.9859 3.79163 13.5C3.79163 12.0141 4.14399 10.6078 4.76165 9.36465C6.26229 6.35519 9.34648 4.29167 12.9115 4.29167C15.3698 4.29167 17.4342 5.20413 19.0136 6.69002L16.3978 9.33115Z" fill="white"/>
</svg>
