<svg width="24" height="24" viewBox="0 0 24 24" fill="none" xmlns="http://www.w3.org/2000/svg">
<path d="M0 12C0 5.37258 5.37258 0 12 0C18.6274 0 24 5.37258 24 12C24 18.6274 18.6274 24 12 24C5.37258 24 0 18.6274 0 12Z" fill="#F6F7F8"/>
<path d="M11.9998 8.81072C12.9763 8.81072 13.6349 9.23249 14.0105 9.58494L15.478 8.15205C14.5767 7.31427 13.4038 6.80005 11.9998 6.80005C9.96605 6.80005 8.2096 7.96716 7.35449 9.66583L9.03583 10.9716C9.4576 9.71783 10.6247 8.81072 11.9998 8.81072Z" fill="#EA4335"/>
<path d="M16.992 12.1156C16.992 11.688 16.9573 11.376 16.8822 11.0525H12V12.9823H14.8658C14.808 13.4618 14.496 14.184 13.8027 14.6694L15.4436 15.9405C16.4258 15.0334 16.992 13.6987 16.992 12.1156Z" fill="#4285F4"/>
<path d="M9.04158 13.0284C8.9318 12.7049 8.86825 12.3582 8.86825 12C8.86825 11.6418 8.9318 11.2951 9.0358 10.9715L7.35447 9.66577C7.00203 10.3707 6.7998 11.1622 6.7998 12C6.7998 12.8378 7.00203 13.6293 7.35447 14.3342L9.04158 13.0284Z" fill="#FBBC05"/>
<path d="M11.9999 17.2001C13.4039 17.2001 14.5826 16.7379 15.4435 15.9406L13.8026 14.6695C13.3635 14.9757 12.7741 15.1895 11.9999 15.1895C10.6248 15.1895 9.45768 14.2823 9.04168 13.0286L7.36035 14.3343C8.21546 16.033 9.96613 17.2001 11.9999 17.2001Z" fill="#34A853"/>
</svg>
