<svg width="24" height="24" viewBox="0 0 24 24" fill="none" xmlns="http://www.w3.org/2000/svg">
<circle cx="12" cy="12" r="12" fill="#01C2FF"/>
<path d="M7.70711 11.2929C7.31658 10.9024 6.68342 10.9024 6.29289 11.2929C5.90237 11.6834 5.90237 12.3166 6.29289 12.7071L7.70711 11.2929ZM11 16L10.2929 16.7071C10.4899 16.9041 10.76 17.01 11.0384 16.9993C11.3167 16.9886 11.578 16.8623 11.7593 16.6508L11 16ZM17.7593 9.65079C18.1187 9.23147 18.0701 8.60017 17.6508 8.24074C17.2315 7.88132 16.6002 7.92988 16.2407 8.34921L17.7593 9.65079ZM6.29289 12.7071L10.2929 16.7071L11.7071 15.2929L7.70711 11.2929L6.29289 12.7071ZM11.7593 16.6508L17.7593 9.65079L16.2407 8.34921L10.2407 15.3492L11.7593 16.6508Z" fill="white"/>
</svg>
