<svg width="33" height="32" viewBox="0 0 33 32" fill="none" xmlns="http://www.w3.org/2000/svg">
<path d="M15.115 2.32989C15.6274 1.09796 17.3726 1.09795 17.885 2.32989L21.0415 9.91899C21.2575 10.4383 21.7459 10.7932 22.3066 10.8382L30.4996 11.495C31.8296 11.6016 32.3689 13.2614 31.3556 14.1294L25.1134 19.4765C24.6862 19.8425 24.4996 20.4166 24.6301 20.9638L26.5372 28.9588C26.8468 30.2566 25.4349 31.2824 24.2963 30.5869L17.2819 26.3026C16.8019 26.0094 16.1981 26.0094 15.7181 26.3026L8.70371 30.5869C7.56506 31.2824 6.15318 30.2566 6.46276 28.9588L8.36987 20.9638C8.50038 20.4166 8.31383 19.8425 7.88664 19.4765L1.64439 14.1294C0.631084 13.2614 1.17037 11.6016 2.50035 11.495L10.6934 10.8382C11.2541 10.7932 11.7425 10.4383 11.9585 9.91899L15.115 2.32989Z" fill="white" stroke="#E6E8EB" stroke-width="2"/>
</svg>
