<svg width="31" height="30" viewBox="0 0 31 30" fill="none" xmlns="http://www.w3.org/2000/svg">
<path d="M14.115 1.32989C14.6274 0.0979559 16.3726 0.097954 16.885 1.32989L20.0415 8.91899C20.2575 9.43835 20.7459 9.7932 21.3066 9.83815L29.4996 10.495C30.8296 10.6016 31.3689 12.2614 30.3556 13.1294L24.1134 18.4765C23.6862 18.8425 23.4996 19.4166 23.6301 19.9638L25.5372 27.9588C25.8468 29.2566 24.4349 30.2824 23.2963 29.5869L16.2819 25.3026C15.8019 25.0094 15.1981 25.0094 14.7181 25.3026L7.70371 29.5869C6.56506 30.2824 5.15318 29.2566 5.46276 27.9588L7.36987 19.9638C7.50038 19.4166 7.31383 18.8425 6.88664 18.4765L0.64439 13.1294C-0.368916 12.2614 0.170372 10.6016 1.50035 10.495L9.69342 9.83815C10.2541 9.7932 10.7425 9.43835 10.9585 8.91899L14.115 1.32989Z" fill="#9A06FF"/>
</svg>
