<svg width="20" height="20" viewBox="0 0 20 20" fill="none" xmlns="http://www.w3.org/2000/svg">
<path d="M10.0002 7.08333C9.42487 7.08333 8.9585 6.61696 8.9585 6.04167C8.9585 5.46637 9.42487 5 10.0002 5C10.5755 5 11.0418 5.46637 11.0418 6.04167C11.0418 6.61696 10.5755 7.08333 10.0002 7.08333Z" fill="#171A1A"/>
<path d="M10.0002 11.0417C9.42487 11.0417 8.9585 10.5753 8.9585 10C8.9585 9.4247 9.42487 8.95833 10.0002 8.95833C10.5755 8.95833 11.0418 9.4247 11.0418 10C11.0418 10.5753 10.5755 11.0417 10.0002 11.0417Z" fill="#171A1A"/>
<path d="M8.9585 13.9583C8.9585 14.5336 9.42487 15 10.0002 15C10.5755 15 11.0418 14.5336 11.0418 13.9583C11.0418 13.383 10.5755 12.9167 10.0002 12.9167C9.42487 12.9167 8.9585 13.383 8.9585 13.9583Z" fill="#171A1A"/>
</svg>
