<svg width="16" height="16" viewBox="0 0 16 16" fill="none" xmlns="http://www.w3.org/2000/svg">
<path d="M5.54031 12.9999H4.01612C3.74663 12.9999 3.48818 12.8946 3.29762 12.707C3.10706 12.5195 3 12.2652 3 11.9999V8.49996C3 8.23475 3.10706 7.9804 3.29762 7.79286C3.48818 7.60533 3.74663 7.49997 4.01612 7.49997H5.54031M9.09674 6.49998V4.49999C9.09674 4.10217 8.93616 3.72064 8.65032 3.43934C8.36448 3.15803 7.97679 3 7.57256 3L5.54031 7.49997V12.9999H11.2712C11.5163 13.0027 11.7541 12.9181 11.9408 12.7619C12.1275 12.6057 12.2506 12.3884 12.2874 12.1499L12.9885 7.64997C13.0106 7.50665 13.0008 7.36031 12.9597 7.2211C12.9186 7.08188 12.8473 6.95312 12.7506 6.84373C12.654 6.73434 12.5343 6.64694 12.3999 6.58759C12.2656 6.52823 12.1197 6.49834 11.9724 6.49998H9.09674Z" stroke="url(#paint0_linear_280_354)" stroke-width="1.5" stroke-linecap="round" stroke-linejoin="round"/>
<defs>
<linearGradient id="paint0_linear_280_354" x1="3.13393" y1="3.94262" x2="11.1721" y2="4.49404" gradientUnits="userSpaceOnUse">
<stop stop-color="#9E00FF"/>
<stop offset="1" stop-color="#00C2FF"/>
</linearGradient>
</defs>
</svg>
