<svg width="22" height="22" viewBox="0 0 22 22" fill="none" xmlns="http://www.w3.org/2000/svg">
<path d="M14.8891 16.1855C15.2471 16.5435 15.8275 16.5435 16.1855 16.1855C16.5435 15.8275 16.5435 15.2471 16.1855 14.8892L12.2964 11.0001L16.1855 7.11101C16.5435 6.75303 16.5435 6.17263 16.1855 5.81465C15.8275 5.45667 15.2471 5.45667 14.8891 5.81465L11.0001 9.70372L7.11096 5.81463C6.75298 5.45665 6.17258 5.45665 5.8146 5.81463C5.45662 6.17261 5.45662 6.75301 5.8146 7.11099L9.70369 11.0001L5.8146 14.8892C5.45662 15.2472 5.45662 15.8276 5.8146 16.1855C6.17258 16.5435 6.75298 16.5435 7.11096 16.1855L11.0001 12.2964L14.8891 16.1855Z" fill="#D2D2D2"/>
</svg>
