<svg width="8" height="8" viewBox="0 0 8 8" fill="none" xmlns="http://www.w3.org/2000/svg">
<path d="M5.41419 5.88571C5.54436 6.01589 5.75542 6.01589 5.88559 5.88571C6.01577 5.75554 6.01577 5.54448 5.88559 5.41431L4.47138 4.0001L5.88559 2.58589C6.01577 2.45571 6.01577 2.24466 5.88559 2.11448C5.75542 1.98431 5.54436 1.98431 5.41419 2.11448L3.99998 3.52869L2.58576 2.11448C2.45558 1.9843 2.24453 1.9843 2.11436 2.11448C1.98418 2.24465 1.98418 2.45571 2.11436 2.58588L3.52857 4.0001L2.11435 5.41432C1.98418 5.54449 1.98418 5.75555 2.11435 5.88572C2.24453 6.0159 2.45558 6.0159 2.58576 5.88572L3.99998 4.4715L5.41419 5.88571Z" fill="#596470"/>
</svg>
