<svg width="20" height="21" viewBox="0 0 20 21" fill="none" xmlns="http://www.w3.org/2000/svg">
<path d="M20 10.5C20 4.97715 15.5228 0.5 10 0.5C4.47715 0.5 0 4.97715 0 10.5C0 16.0228 4.47715 20.5 10 20.5C15.5228 20.5 20 16.0228 20 10.5Z" fill="#FF0000"/>
<path d="M9.99585 5.78149C9.99585 5.78149 5.78126 5.7815 4.72345 6.05636C4.15707 6.21462 3.69069 6.681 3.53244 7.25571C3.25757 8.31352 3.25757 10.5042 3.25757 10.5042C3.25757 10.5042 3.25757 12.7031 3.53244 13.7443C3.69069 14.319 4.14874 14.777 4.72345 14.9353C5.78959 15.2185 9.99585 15.2185 9.99585 15.2185C9.99585 15.2185 14.2188 15.2185 15.2766 14.9436C15.8513 14.7853 16.3093 14.3356 16.4593 13.7526C16.7425 12.7031 16.7425 10.5125 16.7425 10.5125C16.7425 10.5125 16.7508 8.31352 16.4593 7.25571C16.3093 6.681 15.8513 6.22296 15.2766 6.07303C14.2188 5.78151 9.99585 5.78149 9.99585 5.78149ZM8.65483 8.48019L12.1615 10.5042L8.65483 12.5198V8.48019Z" fill="white"/>
</svg>
