<svg width="74" height="16" viewBox="0 0 74 16" fill="none" xmlns="http://www.w3.org/2000/svg">
<path d="M0.42821 9.62793C0.408865 9.62782 0.389689 9.6316 0.371805 9.63907C0.35392 9.64653 0.337683 9.65753 0.324043 9.67141C0.310403 9.68529 0.299632 9.70178 0.292358 9.71992C0.285085 9.73806 0.281455 9.75749 0.281681 9.77706V11.2058C0.280282 11.2229 0.282299 11.2401 0.28761 11.2564V9.84392C0.287162 9.81586 0.292208 9.78799 0.302457 9.76192C0.312707 9.73584 0.327956 9.71208 0.347327 9.69201C0.366697 9.67193 0.389805 9.65593 0.415317 9.64493C0.440829 9.63393 0.468239 9.62816 0.495968 9.62793H0.42821ZM13.7361 9.62793H13.6963C13.7428 9.62761 13.7881 9.64305 13.8249 9.67178C13.8617 9.70052 13.888 9.7409 13.8995 9.78649V9.77706C13.8995 9.68193 13.8462 9.62793 13.7361 9.62793Z" fill="black"/>
<path d="M28.4768 9.62793H28.4302C28.4578 9.62782 28.4852 9.63324 28.5107 9.64388C28.5362 9.65452 28.5594 9.67017 28.579 9.68993C28.5985 9.70969 28.614 9.73317 28.6245 9.75901C28.635 9.78485 28.6403 9.81254 28.6402 9.84049V9.77706C28.6402 9.68193 28.5869 9.62793 28.4768 9.62793Z" fill="black"/>
<path d="M44.7003 6.75007H43.0284C42.9882 6.7503 42.9496 6.7345 42.9209 6.7061C42.8922 6.67769 42.8757 6.63898 42.875 6.59836V0.587725C42.875 0.490019 42.8217 0.439453 42.715 0.439453H41.2056C41.0998 0.439453 41.0464 0.490019 41.0464 0.587725V15.679C41.046 15.7209 41.0537 15.7624 41.0692 15.8012C41.0847 15.8401 41.1076 15.8754 41.1367 15.9052C41.1657 15.935 41.2003 15.9587 41.2385 15.9749C41.2766 15.9911 41.3176 15.9995 41.3589 15.9996H42.5617C42.6029 15.9997 42.6437 15.9916 42.6817 15.9757C42.7198 15.9598 42.7544 15.9364 42.7835 15.907C42.8126 15.8775 42.8357 15.8425 42.8514 15.804C42.8671 15.7654 42.8752 15.7241 42.875 15.6825V8.64762C42.8757 8.60701 42.8922 8.56829 42.9209 8.53989C42.9496 8.51149 42.9882 8.49569 43.0284 8.49592H44.7037C44.7451 8.49592 44.7862 8.48761 44.8244 8.47146C44.8627 8.45531 44.8974 8.43164 44.9265 8.40183C44.9556 8.37202 44.9787 8.33666 44.9942 8.29778C45.0098 8.25891 45.0175 8.21731 45.0171 8.17538V7.07318C45.0171 6.98793 44.9838 6.90613 44.9245 6.84561C44.8651 6.78509 44.7846 6.75075 44.7003 6.75007Z" fill="black"/>
<path d="M58.743 0.439455H58.6965C58.724 0.439341 58.7514 0.444766 58.7769 0.455418C58.8023 0.46607 58.8255 0.481735 58.8449 0.501507C58.8644 0.521278 58.8798 0.544762 58.8902 0.570597C58.9006 0.596432 58.9059 0.624103 58.9057 0.652007V0.587727C58.9057 0.49002 58.8532 0.439455 58.743 0.439455ZM57.2185 15.9996H57.2549C57.2217 15.9985 57.1892 15.9897 57.1598 15.974C57.1305 15.9582 57.1051 15.9359 57.0855 15.9087C57.0936 15.9376 57.1116 15.9627 57.1363 15.9793C57.1609 15.996 57.1907 16.0032 57.2202 15.9996H57.2185ZM55.5118 4.26542C55.3881 3.48034 55.1258 2.81954 54.7249 2.28301C54.2872 1.71211 53.6948 1.2824 53.02 1.04626C52.3509 0.788509 51.6204 0.741601 50.9245 0.911699C50.2783 1.06683 49.6583 1.40366 49.0654 1.91619C48.7887 2.16783 48.5337 2.4428 48.3031 2.73812C48.0487 3.06571 47.8151 3.40922 47.6035 3.7666C47.3763 4.15139 47.1685 4.54758 46.9809 4.95365C46.7878 5.37104 46.6074 5.82272 46.438 6.30525C46.1193 7.18161 45.8894 8.08848 45.752 9.01188C45.6318 9.78106 45.6283 10.5643 45.7418 11.3345C45.8745 12.123 46.1342 12.7893 46.521 13.3332C46.9531 13.9202 47.5517 14.36 48.237 14.594C48.5716 14.7176 48.9212 14.7948 49.2763 14.8237C49.6225 14.8542 49.9714 14.8267 50.3087 14.7423C50.9553 14.5834 51.575 14.2486 52.1679 13.7378C53.2176 12.8041 54.0959 11.3357 54.8029 9.33242C55.4951 7.37087 55.7314 5.68187 55.5118 4.26542ZM53.0327 10.2118C52.8997 10.9129 52.6998 11.4974 52.4398 11.9611C52.0168 12.7701 51.4141 13.1747 50.6314 13.1747C49.8692 13.1747 49.2653 12.7504 48.8053 11.9071C48.5204 11.3512 48.3205 10.7547 48.2125 10.1381C48.074 9.37195 48.0082 8.5942 48.016 7.81541C48.016 7.60971 48.0227 7.32945 48.0431 6.97891C48.0634 6.62836 48.0964 6.26154 48.1498 5.86471C48.2064 5.45919 48.2913 5.05822 48.4039 4.66481C48.5118 4.28128 48.6699 3.91406 48.8739 3.57291C49.0617 3.26204 49.307 2.99081 49.5964 2.77412C49.9016 2.56121 50.266 2.45251 50.6365 2.46386C51.409 2.46386 52.0154 2.87182 52.4618 3.69118C52.9818 4.67167 53.2376 6.04727 53.2376 7.82055C53.2418 8.6223 53.1732 9.42274 53.0327 10.2118Z" fill="black"/>
<path d="M12.4088 7.42836C13.0485 6.97125 13.5158 6.44016 13.8105 5.83506C14.1227 5.18452 14.2404 4.45594 14.1493 3.73867C14.079 3.01826 13.7956 2.33606 13.3362 1.78112C12.9099 1.26688 12.3379 0.854053 11.6202 0.54265C11.273 0.404898 10.9152 0.296255 10.5505 0.21782C10.1495 0.130637 9.74314 0.0710777 9.3342 0.03955C8.89214 0.00439133 8.44855 -0.00733832 8.00528 0.00440975C7.55016 0.015266 7.0702 0.0509773 6.5654 0.111544C5.64911 0.214064 4.74534 0.409603 3.86774 0.695209C3.133 0.930953 2.43767 1.2777 1.80533 1.72369C1.16726 2.19337 0.69408 2.7239 0.385776 3.31528C0.0590685 3.96698 -0.0643926 4.7037 0.0317334 5.42796C0.0722091 5.7857 0.15936 6.13644 0.290911 6.47101C0.419153 6.79813 0.599401 7.10183 0.824515 7.37008C1.25083 7.88432 1.82283 8.29714 2.54051 8.60854C3.83302 9.14507 5.5236 9.28792 7.61227 9.03708C9.65295 8.79539 11.2518 8.25915 12.4088 7.42836ZM6.04365 7.82775C5.36155 8.02088 4.75623 8.10087 4.22771 8.06773C3.32426 8.04431 2.6989 7.67805 2.35163 6.96897C2.01284 6.28331 2.11561 5.54423 2.65994 4.75172C3.02335 4.24371 3.46219 3.7956 3.96091 3.42326C4.57696 2.95652 5.23549 2.55016 5.92762 2.20965C6.11141 2.11795 6.36127 2.00138 6.67805 1.86254C6.99482 1.72369 7.34124 1.59085 7.7173 1.46314C8.10172 1.33302 8.49489 1.23105 8.89377 1.15803C9.28072 1.08307 9.67605 1.06259 10.0685 1.09718C10.4272 1.12886 10.7765 1.23073 11.0968 1.39715C11.4219 1.57754 11.6809 1.85915 11.8354 2.20023C12.1809 2.89902 12.0889 3.63211 11.5592 4.39947C10.924 5.30454 9.8215 6.15161 8.25175 6.94069C7.54473 7.30555 6.80546 7.60254 6.04365 7.82775Z" fill="black"/>
<path d="M32.3852 8.6228H38.8647C38.9485 8.6228 39.0288 8.58911 39.0881 8.52916C39.1473 8.46921 39.1806 8.38789 39.1806 8.30311V0.8903C39.1807 0.862355 39.1754 0.834664 39.1649 0.808825C39.1543 0.782985 39.1389 0.75951 39.1194 0.73975C39.0998 0.71999 39.0766 0.704337 39.0511 0.693695C39.0256 0.683053 38.9982 0.677632 38.9706 0.677745H30.6997C30.6606 0.677406 30.6217 0.684911 30.5854 0.699823C30.5491 0.714736 30.516 0.736765 30.4882 0.764643C30.4603 0.79252 30.4382 0.825696 30.423 0.862264C30.4079 0.898832 30.4 0.938069 30.3999 0.97772V2.12106C30.4001 2.16067 30.4081 2.19986 30.4232 2.23638C30.4384 2.27289 30.4606 2.30602 30.4884 2.33388C30.5163 2.36173 30.5493 2.38377 30.5855 2.39872C30.6218 2.41368 30.6606 2.42126 30.6997 2.42103H37.1589C37.1788 2.42103 37.1985 2.42503 37.2168 2.43282C37.2352 2.4406 37.2518 2.45201 37.2658 2.46637C37.2797 2.48073 37.2907 2.49776 37.2981 2.51646C37.3055 2.53516 37.3091 2.55517 37.3088 2.5753V6.72524C37.309 6.76586 37.2934 6.80494 37.2653 6.83398C37.2373 6.86303 37.199 6.87969 37.1589 6.88037H30.5464C30.4499 6.88037 30.3999 6.93437 30.3999 7.04579V13.5595C30.3999 13.5647 30.3999 13.5681 30.3999 13.5724V14.5983C30.3999 14.6545 30.4219 14.7085 30.4611 14.7483C30.5003 14.7881 30.5535 14.8106 30.6091 14.8109H39.0129C39.123 14.8109 39.1764 14.7637 39.1764 14.666V13.2107C39.1764 13.113 39.123 13.0624 39.0129 13.0624H32.3852C32.3651 13.0625 32.3451 13.0586 32.3264 13.0508C32.3078 13.0431 32.2908 13.0317 32.2766 13.0172C32.2623 13.0028 32.251 12.9857 32.2434 12.9668C32.2357 12.9479 32.2318 12.9277 32.2319 12.9073V8.7745C32.2322 8.75435 32.2363 8.73445 32.2441 8.71592C32.2519 8.69739 32.2633 8.6806 32.2775 8.66652C32.2918 8.65243 32.3086 8.64132 32.3271 8.63382C32.3456 8.62631 32.3653 8.62257 32.3852 8.6228Z" fill="black"/>
<path d="M58.9058 0.652016V15.6799C58.9062 15.722 58.8982 15.7637 58.8825 15.8026C58.8667 15.8416 58.8435 15.877 58.8141 15.9067C58.7846 15.9365 58.7497 15.96 58.7112 15.976C58.6727 15.9919 58.6315 15.9999 58.5899 15.9996H57.2567C57.2235 15.9985 57.191 15.9897 57.1617 15.974C57.1323 15.9582 57.1069 15.9359 57.0874 15.9087C57.0802 15.8857 57.0767 15.8617 57.0772 15.8376V0.739439C57.0773 0.699788 57.0852 0.66055 57.1003 0.623982C57.1155 0.587414 57.1376 0.554237 57.1655 0.526359C57.1933 0.498481 57.2264 0.476452 57.2627 0.46154C57.299 0.446627 57.3378 0.439125 57.377 0.439464H58.7C58.7551 0.440142 58.8077 0.46289 58.8463 0.502727C58.8849 0.542564 58.9063 0.596244 58.9058 0.652016Z" fill="black"/>
<path d="M57.3735 0.439334C57.3343 0.438995 57.2954 0.446497 57.2591 0.46141C57.2228 0.476323 57.1898 0.498351 57.1619 0.526229C57.134 0.554107 57.1119 0.587285 57.0967 0.623853C57.0816 0.660421 57.0737 0.699658 57.0736 0.739309V2.20919C57.0563 2.17839 57.0472 2.14351 57.0474 2.10805V0.651031C57.0476 0.594875 57.0697 0.54107 57.1088 0.501282C57.148 0.461493 57.2011 0.438927 57.2566 0.438477L57.3735 0.439334Z" fill="black"/>
<path d="M57.0747 15.8338C57.0742 15.8579 57.0777 15.882 57.0849 15.9049C57.0606 15.8704 57.0478 15.829 57.0484 15.7867V14.3296C57.0483 14.2942 57.0574 14.2594 57.0747 14.2285V15.8338Z" fill="black"/>
<path d="M58.9058 15.6797V15.7868C58.906 15.8147 58.9007 15.8424 58.8903 15.8682C58.8799 15.8941 58.8645 15.9176 58.845 15.9373C58.8256 15.9571 58.8024 15.9728 58.777 15.9834C58.7515 15.9941 58.7241 15.9995 58.6966 15.9994H58.5898C58.6314 15.9997 58.6727 15.9917 58.7111 15.9757C58.7496 15.9598 58.7846 15.9363 58.814 15.9065C58.8434 15.8768 58.8667 15.8414 58.8824 15.8024C58.8982 15.7635 58.9061 15.7218 58.9058 15.6797Z" fill="black"/>
<path d="M28.6405 9.84391V11.3009C28.6406 11.3289 28.6352 11.3566 28.6247 11.3824C28.6142 11.4082 28.5987 11.4317 28.5792 11.4515C28.5597 11.4712 28.5365 11.4869 28.5109 11.4975C28.4854 11.5082 28.458 11.5136 28.4304 11.5135H22.7505C22.7489 11.5191 22.7489 11.525 22.7505 11.5306V15.6789C22.751 15.7207 22.7432 15.7622 22.7277 15.8011C22.7122 15.8399 22.6893 15.8752 22.6602 15.905C22.6312 15.9348 22.5966 15.9585 22.5584 15.9747C22.5203 15.9909 22.4793 15.9993 22.438 15.9994H21.2352C21.1517 15.9996 21.0716 15.9664 21.0122 15.907C20.9528 15.8476 20.9191 15.7668 20.9185 15.6823V11.5298C20.9201 11.5242 20.9201 11.5182 20.9185 11.5126H15.2335C15.1779 11.5124 15.1246 11.4899 15.0852 11.4501C15.0459 11.4103 15.0237 11.3564 15.0234 11.3001V9.92876C15.0239 9.84956 15.055 9.77368 15.1101 9.71743C15.1652 9.66119 15.2399 9.62905 15.3182 9.62793H28.4304C28.4583 9.62781 28.486 9.63334 28.5117 9.6442C28.5375 9.65505 28.5608 9.67101 28.5804 9.69114C28.6 9.71126 28.6154 9.73515 28.6257 9.76138C28.636 9.78762 28.641 9.81568 28.6405 9.84391Z" fill="black"/>
<path d="M15.3184 9.62796C15.2394 9.62773 15.1635 9.65915 15.1073 9.71536C15.0511 9.77156 15.0192 9.84799 15.0186 9.92793V9.84222C15.0186 9.8138 15.0241 9.78565 15.035 9.75943C15.0458 9.73321 15.0617 9.70943 15.0818 9.68949C15.1018 9.66955 15.1255 9.65384 15.1516 9.64327C15.1777 9.63271 15.2056 9.6275 15.2337 9.62796H15.3184Z" fill="black"/>
<path d="M28.0078 6.71311C26.9677 6.46713 26.0657 6.12002 25.3059 5.66491C24.5942 5.2593 23.971 4.71206 23.4739 4.05619C23.2601 3.76716 23.0863 3.44998 22.9572 3.11341C22.8747 2.89394 22.8045 2.66988 22.7472 2.44232H27.5479C27.5914 2.44174 27.6342 2.4315 27.6733 2.41233C27.7269 2.41012 27.7776 2.38705 27.8149 2.34793C27.8521 2.30881 27.873 2.25666 27.8732 2.20234V0.88931C27.8732 0.860513 27.8673 0.832024 27.856 0.805624C27.8446 0.779225 27.828 0.755487 27.8071 0.735896C27.7999 0.729062 27.7916 0.723551 27.7825 0.719611C27.7485 0.692881 27.707 0.677864 27.664 0.676758H16.0492C15.9935 0.676758 15.9401 0.699152 15.9007 0.739014C15.8613 0.778875 15.8392 0.832937 15.8392 0.88931V1.00501C15.8392 1.00501 15.8392 1.0093 15.8392 1.01187V2.29234C15.8392 2.39004 15.8959 2.43718 16.0026 2.43718H20.9363C20.8927 2.6542 20.8289 2.86655 20.7458 3.07141C20.6223 3.38655 20.4613 3.6853 20.2664 3.96106C19.7845 4.6522 19.1593 5.22845 18.4343 5.64948C17.6576 6.11487 16.7404 6.46884 15.6757 6.71482C15.6383 6.73186 15.6076 6.76096 15.5883 6.79755C15.569 6.83415 15.5622 6.87618 15.569 6.91709L15.8756 8.32954C15.8993 8.43753 15.9603 8.48125 16.0594 8.4581C16.7159 8.29596 17.3603 8.08747 17.988 7.83416C18.5619 7.60167 19.1118 7.31228 19.6294 6.97023C20.4444 6.44967 21.1477 5.76884 21.6978 4.96811C21.7522 4.89969 21.8001 4.82622 21.8409 4.7487C21.8826 4.8265 21.9316 4.89999 21.9874 4.96811C22.5358 5.76941 23.2385 6.4504 24.0533 6.97023C24.5712 7.31204 25.1213 7.60114 25.6956 7.8333C26.3244 8.08661 26.97 8.2951 27.6275 8.45725C27.7241 8.48039 27.7842 8.43668 27.808 8.32869L28.1171 6.91623C28.123 6.87498 28.1156 6.83288 28.0959 6.79626C28.0762 6.75964 28.0453 6.73046 28.0078 6.71311Z" fill="black"/>
<path d="M13.9061 9.84392V11.3009C13.9062 11.3289 13.9008 11.3566 13.8903 11.3824C13.8798 11.4083 13.8643 11.4317 13.8448 11.4515C13.8253 11.4712 13.8021 11.4869 13.7765 11.4975C13.751 11.5082 13.7236 11.5136 13.696 11.5135H8.00934C8.00774 11.5191 8.00774 11.525 8.00934 11.5306V15.6789C8.00945 15.7209 8.00136 15.7626 7.98554 15.8015C7.96971 15.8403 7.94646 15.8757 7.91711 15.9055C7.88776 15.9352 7.8529 15.9589 7.81451 15.975C7.77613 15.9911 7.73498 15.9994 7.69342 15.9994H6.49069C6.44951 15.9995 6.40871 15.9914 6.37063 15.9755C6.33256 15.9596 6.29797 15.9362 6.26885 15.9068C6.23972 15.8773 6.21664 15.8423 6.20093 15.8038C6.18522 15.7652 6.17719 15.724 6.17731 15.6823V11.5298C6.17891 11.5242 6.17891 11.5182 6.17731 11.5126H0.495714C0.468098 11.5127 0.440733 11.5073 0.415197 11.4967C0.389662 11.486 0.366463 11.4704 0.346935 11.4506C0.327408 11.4309 0.311938 11.4074 0.301422 11.3816C0.290906 11.3557 0.285548 11.328 0.28566 11.3001V9.84306C0.285324 9.81493 0.29051 9.78701 0.300915 9.76093C0.311321 9.73484 0.32674 9.71111 0.346279 9.6911C0.365817 9.67108 0.389088 9.6552 0.41474 9.64436C0.440392 9.63352 0.467914 9.62793 0.495714 9.62793H13.696C13.7425 9.62761 13.7878 9.64305 13.8246 9.67178C13.8615 9.70052 13.8878 9.7409 13.8993 9.78649C13.9034 9.80537 13.9056 9.8246 13.9061 9.84392Z" fill="black"/>
<path d="M69.1593 1.64998C69.1205 1.47183 69.0403 1.30558 68.9256 1.16487C68.8096 1.02191 68.6654 0.90512 68.5021 0.822044C68.3321 0.737624 68.1451 0.693927 67.9558 0.694339H61.7262C61.6423 0.694339 61.5619 0.727993 61.5025 0.787921C61.4431 0.84785 61.4096 0.929162 61.4094 1.01403V2.38534C61.4094 2.48305 61.4662 2.53019 61.5729 2.53019H67.213C67.1528 2.7016 67.0893 2.86787 67.0232 3.02986C66.9572 3.19184 66.8767 3.36326 66.7802 3.5441L66.6201 3.86807C66.2408 4.68617 65.6459 5.38252 64.9007 5.88048C63.9114 6.66898 62.9933 7.18237 61.5246 7.55348C61.4179 7.58005 61.3747 7.63918 61.3976 7.73861L61.744 9.20506C61.7812 9.31647 61.8473 9.36018 61.9439 9.33619C62.8137 9.11421 63.305 8.90079 64.0385 8.55025C64.7531 8.21355 65.4253 7.79144 66.0407 7.29293C67.0286 6.50848 67.8336 5.51359 68.3987 4.37889C68.5934 4.01474 68.7571 3.63455 68.8883 3.24241C69.0086 2.87473 69.1051 2.53104 69.1788 2.21393C69.2115 2.02664 69.2049 1.83449 69.1593 1.64998Z" fill="black"/>
<path d="M65.2902 4.58389C63.9444 4.32677 63.7343 4.11079 63.4768 2.74805C63.2227 4.11079 63.0085 4.32249 61.6626 4.58389C63.0085 4.8453 63.2185 5.057 63.4768 6.41888C63.7326 5.057 63.9427 4.8453 65.2902 4.58389Z" fill="black"/>
<path d="M73.8907 14.0849C73.9283 14.0982 73.9603 14.1242 73.9813 14.1586C73.9934 14.1778 73.9999 14.2001 73.9999 14.2229C73.9999 14.2456 73.9934 14.2679 73.9813 14.2871L73.5281 15.7364C73.5147 15.7744 73.489 15.8067 73.4553 15.8281C73.4396 15.8398 73.4206 15.8462 73.4011 15.8462C73.3816 15.8462 73.3626 15.8398 73.3469 15.8281C72.6422 15.599 71.957 15.3124 71.298 14.9711C70.7556 14.6908 70.2369 14.3657 69.7472 13.9992C69.3373 13.6913 68.9577 13.344 68.6139 12.9621C68.378 12.6985 68.1593 12.4197 67.9592 12.1273C67.9457 12.1055 67.927 12.0876 67.9048 12.0751C67.8825 12.0627 67.8576 12.0561 67.8321 12.0561C67.8067 12.0561 67.7818 12.0627 67.7595 12.0751C67.7373 12.0876 67.7186 12.1055 67.7051 12.1273C67.5048 12.4195 67.2861 12.6983 67.0504 12.9621C66.7044 13.3452 66.3217 13.6926 65.9078 13.9992C65.4141 14.3641 64.8927 14.6891 64.3485 14.9711C63.6941 15.3102 63.0144 15.5967 62.3157 15.8281C62.231 15.865 62.1641 15.8341 62.1158 15.7364L61.6627 14.2871C61.6381 14.1766 61.6745 14.1097 61.7719 14.0849C62.7015 13.7831 63.5883 13.3604 64.4103 12.8275C65.1052 12.3793 65.7058 11.7968 66.178 11.1134C66.4004 10.816 66.5806 10.4886 66.7133 10.1406C66.7916 9.93149 66.855 9.71696 66.903 9.49868C66.903 9.41297 66.9513 9.37012 67.0487 9.37012H68.608C68.6797 9.37012 68.728 9.41297 68.7528 9.49868C68.8013 9.71695 68.865 9.93147 68.9434 10.1406C69.0734 10.4861 69.2471 10.813 69.4601 11.1134C69.9344 11.7988 70.5391 12.3815 71.2387 12.8275C72.0659 13.3598 72.9572 13.7823 73.8907 14.0849Z" fill="black"/>
<path d="M71.8486 9.4418C71.7697 9.4418 71.6941 9.41011 71.6383 9.35369C71.5826 9.29728 71.5513 9.22076 71.5513 9.14097V0.469128C71.5513 0.359423 71.5995 0.303711 71.6969 0.303711H73.2376C73.3342 0.303711 73.3825 0.359423 73.3825 0.469128V9.29696C73.3826 9.31617 73.3789 9.3352 73.3717 9.35298C73.3645 9.37076 73.354 9.38692 73.3406 9.40054C73.3272 9.41416 73.3113 9.42497 73.2938 9.43235C73.2762 9.43972 73.2574 9.44352 73.2385 9.44352L71.8486 9.4418Z" fill="black"/>
</svg>
