<svg width="289" height="259" viewBox="0 0 289 259" fill="none" xmlns="http://www.w3.org/2000/svg">
<path d="M171.509 100.405C147.262 114.6 141.133 114.131 118.978 96.7961C133.22 121.019 132.729 127.135 115.398 149.245C139.701 135.115 145.773 135.519 167.93 152.829C153.725 128.597 154.151 122.538 171.509 100.405Z" fill="white"/>
<path d="M289.82 -3.95178C273.104 -7.10214 270.495 -9.74842 267.296 -26.4453C264.14 -9.74842 261.479 -7.15464 244.762 -3.95178C261.479 -0.748915 264.088 1.84488 267.296 18.5313C270.473 1.84488 273.083 -0.748915 289.82 -3.95178Z" fill="white"/>
<path d="M264.445 114.339C270.486 99.6726 272.79 85.5958 271.356 72.1087C269.733 57.6596 263.956 43.9663 254.732 32.7082C245.828 21.1738 233.695 12.5782 219.915 8.04347C207.135 3.84791 192.951 2.94659 177.362 5.33953C169.959 6.71706 162.686 8.705 155.617 11.2833C147.835 14.101 140.257 17.4477 132.935 21.3004C125.008 25.4468 117.305 30.0091 109.859 34.9687C102.2 40.0402 94.3837 45.8024 86.4082 52.2554C71.8524 63.8419 58.5048 76.8808 46.5671 91.1753C36.5366 103.085 28.3661 116.466 22.3325 130.863C16.4543 145.726 14.0431 159.857 15.099 173.255C16.4853 187.881 22.2523 201.774 31.6371 213.097C36.153 218.766 41.3913 223.814 47.2152 228.109C52.9029 232.312 59.2286 235.558 65.9417 237.717C78.7215 241.913 92.9056 242.814 108.494 240.421C136.308 235.697 166.713 219.983 199.71 193.28C231.985 167.247 253.563 140.934 264.445 114.339ZM159.987 189.491C150.4 200.108 140.915 207.972 131.533 213.081C115.85 222.381 101.252 222.847 87.7396 214.479C74.6222 206.42 68.4764 192.708 69.3022 173.344C70.0791 160.776 72.7847 148.42 77.3232 136.714C82.8566 122.137 89.7613 108.135 97.9438 94.8952C100.103 91.3575 103.125 86.6864 107.052 80.9168C110.978 75.1472 115.476 69.1617 120.534 62.9456C125.71 56.5985 131.336 50.6378 137.368 45.1096C143.177 39.6764 149.711 35.0827 156.785 31.4587C163.251 28.148 170.306 26.1367 177.556 25.5365C185.038 25.1234 192.473 27.1468 198.758 31.3069C212.131 39.5178 218.396 53.0119 217.553 71.7891C216.377 94.0491 206.6 120.336 188.222 150.651C180.045 164.466 170.592 177.469 159.987 189.491Z" fill="url(#paint0_linear_902_2661)"/>
<defs>
<linearGradient id="paint0_linear_902_2661" x1="-14.4616" y1="133.527" x2="191.997" y2="32.8366" gradientUnits="userSpaceOnUse">
<stop stop-color="#9E00FF"/>
<stop offset="1" stop-color="#00C2FF"/>
</linearGradient>
</defs>
</svg>
